<svg version="1.1" id="圖層_1" xmlns="http://www.w3.org/2000/svg" x="0" y="0" viewBox="0 0 128 128" xml:space="preserve"><style>.st1{fill:#fff}</style><path d="M90.7 128H37.3C16.8 128 0 111.2 0 90.7V37.3C0 16.8 16.8 0 37.3 0h53.5C111.2 0 128 16.8 128 37.3v53.5c0 20.4-16.8 37.2-37.3 37.2z" fill="#355f8b"/><path class="st1" d="M76.8 70.2c-1.5 0-2.6 1.2-2.6 2.6V76c0 1.5 1.2 2.6 2.6 2.6H80c1.5 0 2.6-1.2 2.6-2.6v-3.2c0-1.5-1.2-2.6-2.6-2.6h-3.2zM47.9 70.2c-1.5 0-2.6 1.2-2.6 2.6V76c0 1.5 1.2 2.6 2.6 2.6h3.2c1.5 0 2.6-1.2 2.6-2.6v-3.2c0-1.5-1.2-2.6-2.6-2.6h-3.2z"/><path class="st1" d="M103.4 45.3h-5.9V40c0-6.7-5.4-12.1-12.1-12.1H42.6c-6.7 0-12.1 5.4-12.1 12.1v5.2h-5.9c-1.3 0-2.4 1.1-2.4 2.4s1.1 2.4 2.4 2.4h5.9v34.2c0 5.3 4.3 9.7 9.7 9.7V97.3c0 1.5 1.2 2.6 2.6 2.6H46c1.5 0 2.6-1.2 2.6-2.6v-3.2-.2h30.7V97.3c0 1.5 1.2 2.6 2.6 2.6h3.2c1.5 0 2.6-1.2 2.6-2.6v-3.2-.2c5.3 0 9.7-4.4 9.7-9.7V69.6c0-1.3-1.1-2.4-2.4-2.4-1.3 0-2.4 1.1-2.4 2.4v14.7c0 2.7-2.2 4.8-4.8 4.8H40.2c-2.7 0-4.8-2.2-4.8-4.8V60.6h59.7c1.3 0 2.4-1.1 2.4-2.4v-8.1h5.9c1.3 0 2.4-1.1 2.4-2.4s-1-2.4-2.4-2.4zM92.7 55.8H35.3V40c0-4 3.3-7.3 7.3-7.3h42.8c4 0 7.3 3.3 7.3 7.3v15.8z"/></svg>